<svg xmlns="http://www.w3.org/2000/svg" width="26" height="26" viewBox="0 0 26 26" fill="none">
  <path fill-rule="evenodd" clip-rule="evenodd" d="M4.25 0.708333C4.25 0.520472 4.32463 0.340304 4.45747 0.207466C4.5903 0.0746279 4.77047 0 4.95833 0H20.5417C20.7295 0 20.9097 0.0746279 21.0425 0.207466C21.1754 0.340304 21.25 0.520472 21.25 0.708333V1.41667H24.7917C24.9795 1.41667 25.1597 1.49129 25.2925 1.62413C25.4254 1.75697 25.5 1.93714 25.5 2.125V6.375C25.5 7.31431 25.1269 8.21515 24.4627 8.87934C23.7985 9.54353 22.8976 9.91667 21.9583 9.91667H20.7662C19.6747 13.005 16.8491 15.2745 13.4583 15.5543V19.8333H18.4167C18.6045 19.8333 18.7847 19.908 18.9175 20.0408C19.0504 20.1736 19.125 20.3538 19.125 20.5417V24.7917C19.125 24.9795 19.0504 25.1597 18.9175 25.2925C18.7847 25.4254 18.6045 25.5 18.4167 25.5H7.08333C6.89547 25.5 6.7153 25.4254 6.58247 25.2925C6.44963 25.1597 6.375 24.9795 6.375 24.7917V20.5417C6.375 20.3538 6.44963 20.1736 6.58247 20.0408C6.7153 19.908 6.89547 19.8333 7.08333 19.8333H12.0417V15.5543C8.65158 15.2745 5.82533 13.005 4.73379 9.91667H3.54167C2.60236 9.91667 1.70152 9.54353 1.03733 8.87934C0.373139 8.21515 0 7.31431 0 6.375V2.125C0 1.93714 0.0746279 1.75697 0.207466 1.62413C0.340304 1.49129 0.520472 1.41667 0.708333 1.41667H4.25V0.708333ZM19.8333 7.08333V1.41667H5.66667V7.08333C5.66667 10.9955 8.83788 14.1667 12.75 14.1667C16.6621 14.1667 19.8333 10.9955 19.8333 7.08333ZM21.25 2.83333V8.5H21.9583C22.5219 8.5 23.0624 8.27612 23.4609 7.8776C23.8594 7.47909 24.0833 6.93858 24.0833 6.375V2.83333H21.25ZM1.41667 2.83333H4.25V8.5H3.54167C2.97808 8.5 2.43758 8.27612 2.03906 7.8776C1.64055 7.47909 1.41667 6.93858 1.41667 6.375V2.83333ZM7.79167 21.25V24.0833H17.7083V21.25H7.79167Z" fill="white"/>
</svg>