<svg xmlns="http://www.w3.org/2000/svg" width="20" height="19" viewBox="0 0 20 19" fill="none">
  <path d="M9.91667 8.49862C8.74839 8.49862 7.74775 8.08212 6.91475 7.24912C6.08175 6.41612 5.66572 5.41596 5.66667 4.24862C5.66761 3.08129 6.08364 2.08018 6.91475 1.24529C7.74586 0.410401 8.7465 -0.00468238 9.91667 3.98388e-05C11.0868 0.00476206 12.0875 0.420317 12.9186 1.24671C13.7497 2.07309 14.1657 3.07421 14.1667 4.25004C14.1676 5.42587 13.7516 6.42604 12.9186 7.25054C12.0856 8.07504 11.0849 8.49012 9.91667 8.49862ZM0 17.272V16.4107C0 15.8261 0.17 15.2793 0.51 14.7702C0.850945 14.2602 1.309 13.8645 1.88417 13.583C3.2215 12.9418 4.55978 12.461 5.899 12.1409C7.23728 11.8198 8.5765 11.6592 9.91667 11.6592C11.2568 11.6592 12.5965 11.8198 13.9358 12.1409C15.275 12.462 16.6123 12.9427 17.9478 13.583C18.5239 13.8645 18.9819 14.2602 19.3219 14.7702C19.6629 15.2793 19.8333 15.8261 19.8333 16.4107V17.272C19.8333 17.6876 19.6921 18.037 19.4098 18.3204C19.1274 18.6018 18.7779 18.7425 18.3614 18.7425H1.47333C1.05683 18.7425 0.707389 18.6013 0.425 18.319C0.142611 18.0366 0.000944445 17.6885 0 17.272ZM1.41667 17.3259H18.4167V16.4093C18.4167 16.0957 18.3151 15.8006 18.1121 15.5239C17.91 15.2481 17.6299 15.0148 17.272 14.824C16.1066 14.2593 14.9043 13.8267 13.6652 13.5264C12.4261 13.226 11.1766 13.0759 9.91667 13.0759C8.65678 13.0759 7.40728 13.226 6.16817 13.5264C4.92906 13.8267 3.72678 14.2593 2.56133 14.824C2.20244 15.0148 1.92242 15.2481 1.72125 15.5239C1.51819 15.8006 1.41667 16.0962 1.41667 16.4107V17.3259ZM9.91667 7.08196C10.6958 7.08196 11.3631 6.80429 11.9184 6.24896C12.4738 5.69362 12.7509 5.02637 12.75 4.24721C12.7491 3.46804 12.4719 2.80126 11.9184 2.24687C11.365 1.69248 10.6977 1.41482 9.91667 1.41387C9.13561 1.41293 8.46883 1.6906 7.91633 2.24687C7.36383 2.80315 7.08617 3.46993 7.08333 4.24721C7.0805 5.02448 7.35817 5.69173 7.91633 6.24896C8.4745 6.80618 9.14128 7.08337 9.91667 7.08054" fill="white"/>
</svg>