<svg width="20" height="13" viewBox="0 0 20 13" fill="none" xmlns="http://www.w3.org/2000/svg">
<path d="M8.52809 11.5615L0.473743 2.95381C0.323548 2.7933 0.204407 2.60274 0.123122 2.39301C0.0418372 2.18329 -8.56094e-08 1.95851 -7.56869e-08 1.73151C-5.56475e-08 1.27307 0.170411 0.833381 0.473743 0.509209C0.623938 0.348696 0.802246 0.22139 0.998485 0.134521C1.19472 0.0476516 1.40505 0.0029389 1.61746 0.00293891C2.04644 0.00293893 2.45785 0.185038 2.76118 0.50921L9.67181 7.91187L16.5824 0.50921C16.7322 0.347853 16.9104 0.219793 17.1067 0.132393C17.303 0.0449928 17.5135 7.65539e-07 17.7262 7.74835e-07C17.9388 7.8413e-07 18.1494 0.0449929 18.3457 0.132393C18.542 0.219793 18.7201 0.347853 18.8699 0.50921C19.0209 0.669249 19.1407 0.859687 19.2225 1.06947C19.3043 1.27926 19.3464 1.50425 19.3464 1.73151C19.3464 1.95878 19.3043 2.18381 19.2225 2.39359C19.1407 2.60338 19.0209 2.79377 18.8699 2.95381L10.8155 11.5615C10.6658 11.7229 10.4876 11.851 10.2913 11.9384C10.095 12.0258 9.88446 12.0708 9.67181 12.0708C9.45915 12.0708 9.2486 12.0258 9.0523 11.9384C8.85601 11.851 8.67784 11.7229 8.52809 11.5615Z" fill="white"/>
</svg>
