<svg width="20" height="13" viewBox="0 0 20 13" fill="none" xmlns="http://www.w3.org/2000/svg">
<path d="M8.52809 0.509256L0.473743 9.11699C0.323548 9.2775 0.204407 9.46807 0.123122 9.67779C0.0418372 9.88751 -8.56094e-08 10.1123 -7.56869e-08 10.3393C-5.56475e-08 10.7977 0.170411 11.2374 0.473743 11.5616C0.623938 11.7221 0.802246 11.8494 0.998485 11.9363C1.19472 12.0231 1.40505 12.0679 1.61746 12.0679C2.04644 12.0679 2.45785 11.8858 2.76118 11.5616L9.67181 4.15893L16.5824 11.5616C16.7322 11.7229 16.9104 11.851 17.1067 11.9384C17.303 12.0258 17.5135 12.0708 17.7262 12.0708C17.9388 12.0708 18.1494 12.0258 18.3457 11.9384C18.542 11.851 18.7201 11.7229 18.8699 11.5616C19.0209 11.4016 19.1407 11.2111 19.2225 11.0013C19.3043 10.7915 19.3464 10.5665 19.3464 10.3393C19.3464 10.112 19.3043 9.88699 19.2225 9.67721C19.1407 9.46742 19.0209 9.27703 18.8699 9.11699L10.8155 0.509256C10.6658 0.347899 10.4876 0.219839 10.2913 0.132438C10.095 0.0450387 9.88446 3.96223e-05 9.67181 3.96316e-05C9.45915 3.96408e-05 9.2486 0.0450388 9.0523 0.132438C8.85601 0.219839 8.67784 0.347899 8.52809 0.509256Z" fill="white"/>
</svg>
